PathFileType	4	(X/Y/Z)	path1_07_0-560.trc
DataRate	CameraRate	NumFrames	NumMarkers	Units	OrigDataRate	OrigDataStartFrame	OrigNumFrames
30	30	8	22	m	30	70	560
Frame#	Time	Hip			RHip			RKnee			RAnkle			RBigToe			RSmallToe			RHeel			LHip			LKnee			LAnkle			LBigToe			LSmallToe			LHeel			Neck			Head			Nose			RShoulder			RElbow			RWrist			LShoulder			LElbow			LWrist		
		X1	Y1	Z1	X2	Y2	Z2	X3	Y3	Z3	X4	Y4	Z4	X5	Y5	Z5	X6	Y6	Z6	X7	Y7	Z7	X8	Y8	Z8	X9	Y9	Z9	X10	Y10	Z10	X11	Y11	Z11	X12	Y12	Z12	X13	Y13	Z13	X14	Y14	Z14	X15	Y15	Z15	X16	Y16	Z16	X17	Y17	Z17	X18	Y18	Z18	X19	Y19	Z19	X20	Y20	Z20	X21	Y21	Z21	X22	Y22	Z22
71	2.3666666666666667	2.7176534815271705	0.8318047924072824	0.8837728061002856	2.7212404573452895	0.7996641174355267	0.808550683265179	2.6909614671052937	0.4736197891511415	0.7853057959502836	2.7506293004565774	0.10759309156889585	0.7934599276074725	2.5837365130030996	0.02375234321495278	0.7860975757905821	2.619214208658737	0.016983836109467437	0.7256566253623371	2.81287389587318	0.027210732963289533	0.812290609023653	2.7111539398711217	0.7973193277828241	0.9730027227774762	2.702164352647623	0.45511200111844635	0.9688007181301866	2.748378293173828	0.10552590112260245	0.9716239944818911	2.60493026312152	0.012952666855703444	0.9982712674569512	2.6328353767953967	0.02552973932822572	1.05881655734526	2.7981287211874837	0.035641212270329084	0.9651779436535586	2.6519157184553785	1.4478469007931363	0.8763557455026926	2.5901335719714202	1.6827805950131067	0.8736746244462801	2.5368729523529843	1.5993365087575475	0.8396752012192985	2.7196291142019975	1.3386544810370387	0.6836978340145599	2.723498377602818	1.0809888665641072	0.6674207430947662	2.70086617015012	0.8496754558745269	0.6678743928984081	2.675361595241369	1.344299114104736	1.058588341279758	2.759969907024262	1.0644971445993385	1.0785587840660187	2.7545237060122525	0.8357047439288461	1.071411822446715
72	2.4	2.717479169754082	0.8315894842235368	0.8838211553290707	2.721508255028585	0.7984533197615717	0.8091355939654866	2.6909682994017348	0.4737163094869009	0.7855575011706033	2.7502083052242496	0.1077406736941523	0.7933957952764785	2.5826014770356203	0.023429015826451096	0.7849637309846723	2.619480131967904	0.016663196760813674	0.7255646784049453	2.8107705478274534	0.027195778128197384	0.8135499576061008	2.7113268371249477	0.796387733091257	0.9732794992583433	2.702126158131484	0.4555009813434817	0.9690236404830007	2.7476599684011513	0.10587628911053691	0.9717165464684181	2.603642910479423	0.01427090337061643	0.9997141929007421	2.6314892558397154	0.026121263318291912	1.0590749277633236	2.797286122736044	0.035867413814218464	0.9655102750777143	2.6520841899564194	1.4477056796500023	0.8761278344982563	2.588650557256999	1.6810676636459563	0.8774854750462174	2.536944993406303	1.5993681801694053	0.8406559887378725	2.719859579879314	1.3380270710622582	0.6830865237217709	2.7233958853072666	1.0809109454835382	0.6672282190444337	2.7013163455697136	0.84976059464312	0.6680546039443117	2.678012459465145	1.3444730132143732	1.0566722409614682	2.7600385707674087	1.0645252968457923	1.0782731007134156	2.754892737801919	0.8353606816068865	1.071293032537012
73	2.433333333333333	2.7172646642980243	0.8314698034323793	0.883793601883302	2.721861342641266	0.7972449289595682	0.8098072125061146	2.6908002005366884	0.47386139408167754	0.7856867555544461	2.7495520325040212	0.10792318380167183	0.7932286564331015	2.581393824081538	0.02311229594094535	0.7837613888112652	2.619836116524832	0.016392347705044285	0.7253454493662359	2.808767169260524	0.027190221469756814	0.8144912311576806	2.711307714433544	0.7954817699612768	0.9735948999709809	2.7018349378791955	0.45594764518742636	0.9691555040243014	2.7467900567862484	0.10609284986784948	0.9718424335865208	2.6024541669064143	0.015112935440469523	1.0006358290210018	2.6306107545743016	0.02674268302991175	1.059571445820582	2.7962122091895485	0.03609314445335717	0.9657079295356495	2.652045860902513	1.4475210727281789	0.8759675518570468	2.587508041773238	1.6800504028027075	0.8795524111086248	2.537091216104144	1.5993276254765145	0.841775484199895	2.720039870034727	1.337501375893722	0.6826233587886369	2.723392848808887	1.0809793194185848	0.6672483402476298	2.701834784810416	0.8498537077168404	0.6685287805969375	2.6794368636383092	1.3444943831340426	1.056032828993708	2.7599024771671368	1.0645225473803026	1.078050337511917	2.7547883088415257	0.8344877810147509	1.0712015332318288
74	2.466666666666667	2.717044870726771	0.8314365075398958	0.8836514748762587	2.722143697945373	0.7963357186925892	0.8103552540546398	2.690565672575103	0.473932135273444	0.7857049827529339	2.74891775032572	0.10806420127956166	0.7929740528053275	2.580482923159656	0.022927074062000796	0.7828027661963356	2.6201393418217505	0.01630305180241108	0.7249931970609044	2.8073893424800547	0.02713779914855405	0.8148453696736097	2.7110698874164143	0.7948590963671156	0.9737634042977927	2.7013459338024917	0.45630790693462436	0.9691273700112144	2.746065143124925	0.10613329426474838	0.9719923446359094	2.6017804178515003	0.015279157422552217	1.0006415443421974	2.6301987805006326	0.027306584205419145	1.0600507809725928	2.795391339316264	0.03625356306163844	0.965810578840333	2.6518650534742787	1.4472817834291158	0.8758504062600442	2.586678738872832	1.6796057653025485	0.8802838661371084	2.537267925595525	1.5992845949083925	0.8426503507896788	2.72031342556571	1.3370717009093784	0.6824150109202289	2.723526505736782	1.0811452838469473	0.6674526355704181	2.702385637188389	0.849927231771045	0.6690140319496767	2.6789980400607583	1.3443711105671061	1.0570309064504366	2.7596621459613595	1.0645088624065935	1.0779427684119771	2.754049433512805	0.8328410783435072	1.0709720711361153
75	2.5	2.7168529188437844	0.8314330238517167	0.8834254857541016	2.7222784362581165	0.7958326080835909	0.8106491138370868	2.6903519332844885	0.4738755728331442	0.7856149418478814	2.7484945348852063	0.10813101086719187	0.7927318913101085	2.5800836049903757	0.022878950786827498	0.7823217991446986	2.6203204965973996	0.016460127672443238	0.7245619971364913	2.806937537693973	0.026946944165438167	0.8146221060569088	2.710751038007483	0.7945785320203245	0.9736777621363673	2.700790332037211	0.456466619488361	0.9689740039319841	2.7456989755993333	0.10599791236730045	0.9721441868577692	2.601759754443496	0.014985176588354882	0.9999161695479206	2.630224012215178	0.027721784657605004	1.0603447044387373	2.795200077620415	0.03629033481036605	0.9658225982116132	2.6516123535346448	1.447021696198305	0.8757972054691523	2.58614828067721	1.6795594080674912	0.8802788782265903	2.5374286627658673	1.599281108043642	0.8431073073032425	2.7206760531052807	1.3368270048058941	0.6826222134570391	2.7237273782588853	1.0813085076191213	0.6677811484100127	2.702890190759257	0.8499957654258188	0.6693251763571302	2.6772181771936925	1.3441483474004046	1.0590165276573362	2.75948929433842	1.06448752574615	1.0779396221107778	2.7526743022640647	0.8303270283994852	1.0704180503709768
76	2.533333333333333	2.7167394042210224	0.831402784712054	0.8831938492487934	2.7223681259829795	0.79564619841608	0.8107041868120519	2.6902129087743845	0.47372787569786756	0.785413961301196	2.7483500076359877	0.10812451519717803	0.7925985836035323	2.580560324183856	0.02295708744258891	0.7826943746625784	2.6204122813186794	0.01679529228493006	0.7241471304738698	2.8074304404705344	0.026551597440897638	0.8139631415447938	2.710543274956009	0.794520387176322	0.9733852584598873	2.700326637514394	0.4563930100798047	0.9688067022785101	2.7456888597609708	0.10575496738994933	0.9722801871173813	2.6020841352373183	0.014680589634635251	0.9991424741480375	2.6302515568068734	0.028013164005081886	1.0603487579776478	2.795607760770259	0.03623282361485328	0.9657315161859477	2.6513963104960454	1.446816497655946	0.8758665764528563	2.5858981260051648	1.6797697967162328	0.8800465185756162	2.5375552247431257	1.59934051033181	0.8432093343361401	2.7211043904619867	1.3369881267142283	0.683512745571402	2.723905359629668	1.0813657701862422	0.6681411056992255	2.70326999782381	0.8500741383657636	0.6694528723757558	2.6751447051811743	1.343898020284371	1.0609886166277376	2.759527533702067	1.0644580249723186	1.0779913748485663	2.75095012415311	0.8272666483913967	1.069503222125054
77	2.566666666666667	2.716726254705099	0.8313475032865674	0.8830227015577301	2.72255234512433	0.7956229412448116	0.810605821551236	2.690174344361607	0.4735596324948355	0.7851396876885206	2.7484068171640272	0.10808904429819421	0.7925992086784055	2.5821317409416995	0.02315316168311926	0.7841221228965795	2.6205315982669664	0.017176019369300178	0.72383758403821	2.8086149977071257	0.026001410888270564	0.8130543538194286	2.7105076804185857	0.7945139892067632	0.973002818565833	2.7000600942718336	0.45615267914903873	0.9687169155659262	2.7458374576918065	0.10551382052878995	0.9723812896510577	2.602327061981495	0.014578843382389366	0.9987550818558396	2.629728532622814	0.02825773884317598	1.0600236787217507	2.796173098461429	0.03620520985865714	0.9655180528641414	2.651350779342206	1.4467687906887352	0.8761373914911232	2.585873047595916	1.680141986284675	0.8798896894778637	2.5376522951635723	1.5994759307640045	0.8431388994364793	2.7216483297565257	1.337892216732434	0.6855484739961378	2.7240172504507565	1.081256549264062	0.6684358665576297	2.703476498569499	0.8501249144850486	0.6694599848970696	2.673397114969572	1.343660835199426	1.0624084188696121	2.7597916438386565	1.064434590252656	1.0780714332076546	2.7495056498810833	0.8245735198994301	1.06849618993738
78	2.6	2.7167677382282163	0.8313212100914141	0.8829361788487899	2.7228325258039683	0.7956417352497787	0.8104021341136549	2.6902102919023814	0.4734343571253834	0.7848743251200614	2.7484945566375427	0.10810592406862422	0.7926838740927418	2.5844019724604257	0.02342025255612961	0.786221379444032	2.62078635065426	0.01751748876891867	0.7236693634848708	2.810034433078604	0.025477120865790757	0.8121397084875008	2.710565612613543	0.7944300305961729	0.9726012036442538	2.7000115163104423	0.4558712688046064	0.9687306560575432	2.745966441372886	0.10535672277681393	0.9724118417503326	2.602343992585317	0.01445486542761937	0.9985172955183566	2.6286789066331537	0.028390739603142343	1.0594350946798403	2.7964922816286397	0.036304808128214676	0.9651791615720982	2.651572460707174	1.4470000372640968	0.8766554791545559	2.586002467393954	1.680603712824702	0.8799040186668305	2.537721212601892	1.5996871152714776	0.8430495753414358	2.7223740714683418	1.3398972119085713	0.6892883613928166	2.724060944584525	1.0809938037813012	0.6686169291424535	2.7035043670593324	0.850087323673417	0.6693983689747502	2.6720502888149893	1.3434239850951362	1.0632308039556522	2.7601594748481144	1.0644404200354989	1.078177580663549	2.7490498677345423	0.823398252947281	1.067858619142716
